P3
# CREATOR: GIMP PNM Filter Version 1.1
4 4 255
0
0
0
0
0
0
0
0
0
255
0
255
0
0
0
0
255
119
0
0
0
0
0
0
0
0
0
0
0
0
0
255
119
0
0
0
255
0
255
0
0
0
0
0
0
0
0
0
